<svg xmlns="http://www.w3.org/2000/svg" viewBox="0 0 108 108" width="108" height="108">
  <defs>
    <radialGradient id="bg" cx="50%" cy="32%" r="95%">
      <stop offset="0%" stop-color="#1B3E70"/>
      <stop offset="100%" stop-color="#081428"/>
    </radialGradient>
  </defs>
  <rect width="108" height="108" rx="24" fill="url(#bg)"/>
  <path fill="#F6F2E8" d="M27.96,24.67 L27.69,24.89 L27.64,25.13 L27.76,25.41 L28.03,25.60 L31.36,25.87 L34.25,26.47 L34.89,26.71 L35.50,27.11 L36.64,27.38 L37.60,28.09 L38.51,28.46 L39.82,29.50 L40.76,30.51 L41.82,32.11 L42.43,33.49 L42.78,34.68 L43.05,36.53 L43.05,46.15 L43.12,46.66 L43.12,49.84 L43.05,50.36 L43.05,69.23 L42.68,72.24 L42.34,73.57 L41.94,74.63 L41.18,76.06 L40.51,77.00 L39.67,77.93 L38.71,78.77 L36.84,80.00 L35.23,80.74 L33.83,81.24 L32.05,81.71 L30.28,82.03 L26.63,82.47 L26.40,82.62 L26.40,82.79 L26.73,82.99 L28.70,83.28 L34.27,83.75 L40.07,83.83 L40.83,83.98 L41.23,83.95 L41.74,83.78 L42.88,83.68 L43.82,83.80 L44.83,83.75 L45.74,83.51 L47.44,83.48 L48.67,83.14 L49.41,83.09 L50.28,82.84 L51.51,82.77 L52.08,82.50 L52.82,82.40 L53.68,82.03 L55.31,81.73 L56.24,81.19 L59.60,79.86 L60.09,79.46 L61.92,78.40 L63.67,77.17 L64.36,76.55 L64.41,76.18 L64.21,76.06 L63.96,76.11 L60.41,77.91 L58.04,78.85 L56.22,79.44 L53.70,80.08 L50.40,80.65 L48.67,80.82 L48.38,80.77 L48.18,80.57 L48.28,80.20 L49.86,78.33 L50.47,77.37 L50.70,76.80 L51.19,76.23 L52.82,72.80 L53.38,71.25 L53.85,69.52 L54.42,66.15 L54.72,62.57 L54.79,60.20 L54.79,48.73 L54.57,44.52 L54.17,41.16 L53.75,38.85 L52.91,35.91 L51.76,33.22 L50.37,31.00 L49.36,29.77 L47.46,27.95 L47.37,27.70 L47.51,27.45 L48.08,27.28 L49.98,27.23 L50.55,27.11 L51.29,27.13 L53.78,27.60 L55.97,28.19 L58.78,29.23 L61.32,30.49 L63.74,32.01 L64.06,32.06 L64.26,31.92 L64.28,31.62 L64.18,31.40 L62.06,29.60 L59.97,28.27 L58.04,27.28 L54.99,26.10 L50.25,24.94 L46.03,24.37 L39.89,24.00 L33.46,24.00 L29.66,24.32 Z"/>
  <path fill="#E0B96F" d="M62.09,25.18 L61.72,25.28 L61.57,25.48 L61.55,25.82 L61.74,26.12 L64.33,27.55 L65.86,28.56 L68.20,30.41 L70.05,32.19 L71.24,33.49 L72.35,34.90 L73.65,36.77 L74.72,38.55 L76.22,41.71 L77.01,43.90 L77.63,46.10 L78.19,49.55 L78.34,51.32 L78.34,54.28 L77.92,58.28 L77.45,60.62 L76.86,62.82 L76.15,64.86 L75.21,67.03 L73.41,70.39 L71.29,73.47 L69.29,75.84 L68.25,76.87 L66.60,78.33 L64.38,80.00 L62.80,80.99 L60.81,82.08 L60.58,82.32 L60.58,82.55 L60.88,82.74 L61.52,82.64 L63.89,81.73 L65.59,80.87 L66.23,80.67 L67.00,80.08 L67.81,79.76 L68.82,79.14 L70.72,77.64 L73.31,75.17 L73.73,74.36 L75.38,72.29 L75.87,71.79 L77.06,69.75 L77.70,68.98 L78.02,68.44 L78.29,67.55 L80.02,63.83 L80.09,63.24 L80.71,61.29 L81.18,59.14 L81.62,56.23 L81.79,53.84 L81.72,51.32 L81.47,48.81 L80.66,44.94 L80.04,43.04 L79.03,40.57 L77.90,38.40 L76.29,35.89 L74.07,33.10 L71.95,30.98 L69.59,29.03 L68.35,28.17 L66.36,26.96 L63.89,25.78 Z"/>
</svg>
